<?xml version="1.0" encoding="utf-8"?>
<!-- Svg Vector Icons : http://www.onlinewebfonts.com/icon -->
<!DOCTYPE svg PUBLIC "-//W3C//DTD SVG 1.1//EN" "http://www.w3.org/Graphics/SVG/1.1/DTD/svg11.dtd">
<svg version="1.1" xmlns="http://www.w3.org/2000/svg" xmlns:xlink="http://www.w3.org/1999/xlink" x="0px" y="0px" viewBox="0 0 1000 1000" enable-background="new 0 0 1000 1000" xml:space="preserve">
<metadata> Svg Vector Icons : http://www.onlinewebfonts.com/icon </metadata>
<g><path d="M979.4,204.4l-510,509.9H285.6V530.6l510-509.9c7.2-7.2,16.6-10.7,26-10.7c9.4,0,18.8,3.5,26,10.7l131.8,131.8c7.2,7.2,10.6,16.6,10.6,26C990,187.9,986.5,197.3,979.4,204.4L979.4,204.4L979.4,204.4z M821.6,117.2l-444.1,444v61.2h61.3l444.1-444L821.6,117.2L821.6,117.2z M484.7,163.1H101.9v735h735V515.3c0-25.4,20.6-45.9,45.9-45.9c25.4,0,45.9,20.6,45.9,45.9v413.4c0,33.8-27.4,61.2-61.2,61.2H71.2C37.4,990,10,962.5,10,928.7V132.5c0-33.8,27.4-61.3,61.2-61.3h413.4c25.4,0,45.9,20.6,45.9,45.9C530.6,142.6,510.1,163.1,484.7,163.1L484.7,163.1L484.7,163.1z" fill="#ffffff"/></g>
</svg>
